<svg id="visual" viewBox="0 0 1920 1080" width="1920" height="1080" xmlns="http://www.w3.org/2000/svg" xmlns:xlink="http://www.w3.org/1999/xlink" version="1.1"><rect x="0" y="0" width="1920" height="1080" fill="#FFFFFF"></rect><defs><linearGradient id="grad1_0" x1="43.8%" y1="0%" x2="100%" y2="100%"><stop offset="14.444444444444446%" stop-color="#ffffff" stop-opacity="1"></stop><stop offset="85.55555555555554%" stop-color="#ffffff" stop-opacity="1"></stop></linearGradient></defs><defs><linearGradient id="grad2_0" x1="0%" y1="0%" x2="56.3%" y2="100%"><stop offset="14.444444444444446%" stop-color="#ffffff" stop-opacity="1"></stop><stop offset="85.55555555555554%" stop-color="#ffffff" stop-opacity="1"></stop></linearGradient></defs><g transform="translate(1920, 0)"><path d="M0 594C-52.3 490.2 -104.7 386.4 -202 349.9C-299.3 313.3 -441.6 344.1 -514.4 297C-587.2 249.9 -590.6 125 -594 0L0 0Z" fill="#02b3c5"></path></g><g transform="translate(0, 1080)"><path d="M0 -594C109.4 -581.6 218.7 -569.2 297 -514.4C375.3 -459.6 422.5 -362.3 466.8 -269.5C511.1 -176.7 552.6 -88.3 594 0L0 0Z" fill="#02b3c5"></path></g></svg>